# xmcd
#
# Track frame offsets:
#	150
#	21512
#	53672
#	72890
#
# Disc length: 1078 seconds
#
# Revision: 2
# Processed by: cddbd v1.5.2PL0 Copyright (c) Steve Scherf et al.
# Submitted via: EZCDAudioConverter 1.3.4.1
#
DISCID=30043404
DTITLE=Kate Bush - Rubberband Girl
DYEAR=1900
DGENRE=
TTITLE0=Rubberband Girl
TTITLE1=Rubberband Girl [Extended Mix]
TTITLE2=Show A Little Devotion
TTITLE3=Home For Christmas
EXTD=
EXTT0=
EXTT1=
EXTT2=
EXTT3=
PLAYORDER=
